<?xml version="1.0" standalone="no"?>
<!DOCTYPE svg PUBLIC "-//W3C//DTD SVG 20010904//EN"
 "http://www.w3.org/TR/2001/REC-SVG-20010904/DTD/svg10.dtd">
<svg version="1.0" xmlns="http://www.w3.org/2000/svg"
 width="519.000000pt" height="519.000000pt" viewBox="0 0 519.000000 519.000000"
 preserveAspectRatio="xMidYMid meet">
<metadata>
Created by potrace 1.14, written by Peter Selinger 2001-2017
</metadata>
<g transform="translate(0.000000,519.000000) scale(0.100000,-0.100000)"
fill="#000000" stroke="none">
<path d="M2561 5034 c-19 -69 -163 -235 -312 -360 -81 -67 -99 -76 -99 -46 0
57 -89 288 -118 306 -5 3 -41 -31 -78 -76 -86 -106 -140 -156 -290 -273 -132
-104 -265 -231 -332 -317 -53 -70 -129 -201 -144 -250 -6 -21 -14 -38 -18 -38
-4 0 -24 25 -44 55 -38 58 -51 66 -60 38 -12 -38 -37 -170 -56 -293 -38 -247
-27 -335 100 -795 106 -382 120 -439 113 -445 -4 -3 -57 -25 -118 -48 -60 -24
-117 -46 -125 -51 -12 -7 -15 -28 -14 -95 l1 -86 45 -47 c37 -41 46 -59 57
-113 51 -268 93 -372 179 -452 74 -67 109 -122 92 -143 -7 -8 -10 -26 -6 -40
5 -21 12 -25 42 -25 19 0 36 -5 38 -13 2 -6 13 -52 24 -100 26 -109 95 -257
157 -337 62 -81 162 -181 335 -336 236 -211 285 -246 383 -275 70 -21 232 -29
367 -19 217 17 376 63 499 144 185 124 529 453 648 621 65 92 182 300 264 470
l34 70 65 5 c68 6 97 17 121 47 13 17 12 17 -6 2 -41 -33 -48 -33 -31 -1 15
30 15 31 -7 38 -12 5 -25 7 -29 6 -5 -1 -8 3 -8 9 0 6 -14 9 -32 7 -30 -3 -33
-6 -32 -36 1 -17 -3 -32 -8 -32 -8 0 -9 67 -4 211 8 211 8 212 -13 206 -12 -3
-24 0 -29 7 -11 21 -49 37 -49 23 -3 -63 -18 -155 -27 -166 -9 -12 -8 -13 4
-6 12 7 13 6 3 -7 -7 -8 -10 -18 -6 -21 3 -4 0 -14 -8 -24 -9 -11 -10 -14 -1
-9 6 4 12 2 12 -3 0 -6 -8 -11 -17 -12 -10 0 -13 -3 -7 -5 8 -3 5 -17 -7 -42
-10 -20 -20 -46 -22 -57 -2 -11 -18 -49 -36 -84 -18 -35 -35 -73 -37 -85 -3
-11 -7 -30 -9 -41 -9 -40 -57 -169 -80 -214 -38 -74 -75 -124 -150 -203 -81
-86 -108 -118 -150 -173 -16 -22 -34 -45 -40 -51 -5 -7 -26 -31 -45 -55 -19
-24 -69 -83 -110 -132 -41 -48 -91 -108 -110 -131 -132 -163 -248 -201 -600
-201 -234 1 -303 11 -386 60 -51 30 -491 467 -555 550 -91 120 -198 311 -182
325 4 5 87 27 183 50 225 53 280 69 280 81 0 5 6 9 13 9 19 0 79 66 119 130
55 87 101 215 168 471 6 20 23 54 40 77 27 37 35 42 70 42 68 0 93 -29 190
-222 85 -169 130 -236 206 -309 107 -102 215 -134 402 -118 262 21 382 53 452
122 41 40 80 121 80 167 0 20 9 62 20 94 36 101 53 246 45 388 l-6 127 45 49
c42 45 46 53 46 100 0 68 -20 152 -39 161 -9 5 -72 11 -141 15 -69 4 -177 12
-240 17 -308 29 -481 19 -648 -37 -97 -32 -125 -51 -119 -80 3 -18 -1 -25 -17
-30 -12 -3 -68 -23 -126 -44 -152 -55 -320 -70 -488 -44 -18 3 -30 9 -26 15
12 19 -6 56 -33 68 -15 7 -75 15 -133 18 -129 6 -222 -12 -324 -62 -39 -19
-81 -35 -94 -35 -20 0 -22 5 -23 58 0 31 -2 66 -4 77 -2 11 -6 61 -9 110 -4
50 -9 106 -11 125 -3 19 -5 84 -5 143 -1 95 2 115 24 160 13 29 33 62 43 73
36 42 218 132 342 170 25 7 109 16 186 19 138 6 463 47 508 64 13 5 113 27
223 50 218 44 198 44 478 10 194 -24 237 -35 306 -79 124 -80 182 -183 285
-510 29 -92 89 -237 135 -328 44 -88 60 -132 76 -202 19 -83 23 -140 10 -140
-7 0 -8 -3 -1 -8 6 -4 12 -16 13 -27 2 -11 8 -22 13 -25 5 -3 7 -16 5 -27 -3
-12 3 -28 12 -35 13 -11 15 -11 7 2 -8 13 -7 13 8 1 9 -7 17 -10 18 -5 6 64
10 87 17 102 5 9 12 34 16 55 4 21 15 52 25 69 l19 30 16 -23 16 -23 21 21
c30 30 31 96 8 468 -22 355 -24 381 -50 530 -47 266 -108 395 -317 663 -90
116 -313 345 -324 334 -6 -6 -5 -34 3 -71 6 -34 10 -63 8 -66 -13 -13 -173
109 -269 204 -60 60 -119 112 -132 116 -13 4 -58 41 -100 83 -51 50 -81 73
-88 66 -5 -5 -11 -70 -12 -144 l-3 -135 -61 125 c-75 154 -244 400 -274 400
-5 0 -14 -16 -19 -36z m940 -2391 c45 -26 68 -61 74 -113 3 -25 2 -37 -3 -28
-25 56 -119 87 -302 99 -180 12 -297 4 -420 -27 -155 -39 -147 -37 -130 -25
24 18 161 59 256 77 249 46 464 54 525 17z m-1546 -196 l40 -16 -50 5 c-27 3
-62 7 -78 9 -41 7 -168 -12 -250 -36 -79 -24 -142 -56 -171 -88 -25 -28 -50
-28 -41 0 4 11 4 36 0 55 -6 32 -8 34 -48 35 l-42 0 36 14 c20 7 70 18 110 24
41 6 85 13 99 15 14 2 99 3 190 2 121 -2 176 -7 205 -19z m1429 -31 c62 -35
99 -69 130 -118 10 -15 23 -25 31 -22 9 4 17 -11 26 -53 12 -57 12 -58 21 -25
15 54 21 36 13 -40 -13 -138 -58 -215 -153 -266 -119 -64 -272 -97 -415 -90
-96 5 -142 21 -215 76 -40 31 -112 138 -156 234 -45 97 -89 266 -53 200 l13
-23 23 25 c22 24 127 63 138 52 3 -3 -4 -31 -16 -62 -22 -58 -27 -128 -11
-154 10 -17 12 -14 30 60 21 81 71 149 143 195 l28 18 -22 -37 c-27 -46 -37
-156 -19 -210 14 -45 58 -97 106 -126 31 -20 39 -21 87 -11 76 17 137 42 137
57 0 7 9 18 20 24 19 10 24 6 21 -13 -3 -15 43 4 61 25 56 64 41 232 -26 287
-16 14 -21 31 -9 31 3 0 34 -15 67 -34z m-2074 -96 c20 -57 32 -114 36 -175
l6 -90 -26 30 c-14 17 -25 33 -26 38 -1 19 -20 4 -20 -15 0 -48 20 -94 48
-110 19 -11 33 -32 42 -60 l13 -43 14 45 c8 25 16 78 18 119 2 52 8 78 20 90
15 15 16 14 4 -12 -8 -17 -9 -31 -3 -35 5 -4 14 -16 20 -26 19 -35 30 -27 47
34 26 93 127 190 198 190 l22 0 -20 -22 c-83 -91 -75 -245 18 -334 27 -26 38
-29 109 -32 79 -4 190 18 190 38 0 6 -11 5 -25 -2 -14 -6 -28 -9 -31 -5 -10
10 16 47 34 47 10 0 24 6 31 13 12 10 13 8 7 -8 -4 -11 -10 -35 -12 -54 -11
-81 -77 -184 -147 -228 -69 -43 -131 -56 -268 -57 -125 0 -125 0 -209 39 -72
35 -87 46 -116 90 -57 91 -94 249 -97 422 -1 49 4 104 12 125 12 35 56 80 74
75 4 -1 21 -40 37 -87z m1761 60 c22 -12 26 -59 7 -78 -17 -17 -48 -15 -70 5
-23 21 -23 38 2 63 23 23 33 24 61 10z m-1250 -167 c16 -44 -46 -84 -79 -51
-19 19 -14 55 9 72 26 18 59 8 70 -21z m2269 -67 c0 -3 -4 -8 -10 -11 -5 -3
-10 -1 -10 4 0 6 5 11 10 11 6 0 10 -2 10 -4z m-595 -396 c-28 -45 -220 -90
-375 -89 l-105 2 80 8 c174 17 332 51 375 79 20 13 33 13 25 0z m-1595 -185
c-49 -28 -146 -53 -215 -54 -38 -1 -88 -3 -110 -6 -61 -7 -135 5 -135 22 0 12
14 13 78 8 85 -8 258 7 337 29 65 18 76 19 45 1z"/>
<path d="M4279 2393 c-22 -20 -51 -57 -63 -82 -27 -53 -50 -120 -44 -127 3 -2
27 27 55 64 28 37 67 79 86 92 38 26 57 56 50 78 -8 22 -42 12 -84 -25z"/>
<path d="M4026 2242 c-3 -5 1 -9 9 -9 8 0 15 4 15 9 0 4 -4 8 -9 8 -6 0 -12
-4 -15 -8z"/>
<path d="M4200 1995 c7 -8 16 -15 21 -15 5 0 9 7 9 15 0 9 -9 15 -21 15 -18 0
-19 -2 -9 -15z"/>
<path d="M2212 1735 c-44 -88 -46 -216 -4 -275 33 -46 108 -75 192 -75 63 0
86 5 141 31 79 38 110 79 112 152 2 59 -15 62 -52 7 -55 -83 -200 -127 -296
-91 -64 25 -95 66 -95 125 0 26 7 68 16 94 21 62 12 82 -14 32z"/>
<path d="M3000 1313 c-59 -26 -260 -80 -355 -94 -55 -9 -171 -14 -300 -14
-203 0 -262 7 -347 40 -35 14 -17 -11 30 -42 66 -43 172 -96 179 -90 3 3 15 2
27 -3 72 -27 275 -17 426 20 98 25 259 93 337 142 83 53 85 77 3 41z"/>
<path d="M2130 1100 c37 -32 103 -59 155 -65 l50 -5 -50 19 c-27 11 -74 31
-102 45 -63 31 -85 34 -53 6z"/>
</g>
</svg>
